<svg enable-background="new 0 0 63 63" viewBox="0 0 63 63" xmlns="http://www.w3.org/2000/svg"><g fill="#1299d6"><path d="m31.5 63c-17.4 0-31.5-14.1-31.5-31.5s14.1-31.5 31.5-31.5 31.5 14.1 31.5 31.5-14.1 31.5-31.5 31.5zm0-58c-14.6 0-26.5 11.9-26.5 26.5s11.9 26.5 26.5 26.5 26.5-11.9 26.5-26.5-11.9-26.5-26.5-26.5z"/><path d="m45.9 44.5h-30.1v-2.3h30.1z"/><path d="m46.2 42.3-30.2-3.8.2-2.3 30.3 3.7z"/><path d="m38.2 17.9c-9.7-1.8-18.9 4.3-20.6 13.6l-.3 1.4 2 .4.3-1.4c1.5-8.2 9.7-13.6 18.2-12l2.7.5-3.9 2.5 1.2 1.6 6.7-4.4-4.7-6.5-1.7 1.1 2.7 3.8z"/></g></svg>